<svg width="16" height="20" viewBox="0 0 16 20" fill="none" xmlns="http://www.w3.org/2000/svg">
<g opacity="0.319778">
<path fill-rule="evenodd" clip-rule="evenodd" d="M6.5 1.5C6.5 0.672 7.172 0 8 0C8.828 0 9.5 0.672 9.5 1.5V2.19531C12.0868 2.86209 14 5.2048 14 8V14L15.5371 15.1562C15.8255 15.3399 16.0001 15.6581 16 16C16 16.5523 15.5523 17 15 17H8H1C0.447715 17 0 16.5523 0 16C-8.11322e-05 15.6581 0.174505 15.3399 0.462891 15.1562H0.464844L2 14V8C2 5.2048 3.91318 2.86209 6.5 2.19531V1.5ZM8 20C6.9 20 6 19.1 6 18H10C10 19.1 9.1 20 8 20Z" fill="black"/>
</g>
</svg>
