<svg width="100" height="100" viewBox="0 0 100 100" fill="none" xmlns="http://www.w3.org/2000/svg">
<path fill-rule="evenodd" clip-rule="evenodd" d="M88.9243 90.5184C73.6416 102.994 25.9223 102.994 10.9515 90.5184C-4.3312 78.0427 -2.77177 24.7094 10.9515 10.6743C24.6747 -3.36076 75.201 -3.36076 88.9243 10.6743C102.648 24.7094 104.207 78.043 88.9243 90.5184Z" fill="url(#paint0_linear_0_1160)"/>
<g opacity="0.2">
<path d="M50.2511 68.6862C36.5279 79.6024 21.2452 85.2164 6.89829 85.5283C-3.70609 67.4386 -1.52276 23.4621 10.9529 10.6746C22.181 -0.865362 57.4246 -3.0487 77.6976 4.12477C82.6878 24.7096 72.3954 50.9083 50.2511 68.6862Z" fill="white"/>
</g>
<path d="M42.764 77.7309C40.5806 77.7309 38.3975 76.7952 37.1499 74.9239L19.6841 52.4678C17.189 49.3489 17.8129 44.9825 20.9317 42.4873C24.0506 39.9921 28.417 40.616 30.9122 43.7349L42.764 59.0176L68.9629 25.0215C71.458 21.9026 75.8245 21.2787 78.9433 23.7739C82.0622 26.2691 82.6861 30.6355 80.1909 33.7544L48.378 74.9239C46.8186 76.4833 44.9473 77.7309 42.764 77.7309Z" fill="white"/>
<defs>
<linearGradient id="paint0_linear_0_1160" x1="0.0664062" y1="0.14801" x2="0.0664062" y2="99.8751" gradientUnits="userSpaceOnUse">
<stop stop-color="#00BBE7"/>
<stop offset="1" stop-color="#0086CA"/>
</linearGradient>
</defs>
</svg>
