<svg width="40" height="40" viewBox="0 0 40 40" fill="none" xmlns="http://www.w3.org/2000/svg">
<path fill-rule="evenodd" clip-rule="evenodd" d="M30.4935 20.8871L26.7055 26.6271C26.2094 28.1158 25.3657 29.5217 24.1746 30.7128L18.0423 36.8295C14.0393 40.8326 7.37294 41.0476 3.15485 36.8295C-0.94745 32.7272 -0.94745 26.0599 3.15485 21.9576L9.28709 15.8253C10.4616 14.6508 11.8511 13.7906 13.3729 13.2944L15.4241 13.1621L20.0391 13.3441L20.0888 13.2944C21.6107 13.7906 23.0001 14.6508 24.1746 15.8253C25.3655 17.0163 26.2093 18.4225 26.7055 19.9111L30.4935 20.8871ZM7.29029 32.694C9.09341 34.4971 12.0543 34.5467 13.907 32.694L20.0392 26.5773L16.6978 23.3021L13.3729 20.0103L7.29029 26.0773C5.47072 27.8968 5.47072 30.8744 7.29029 32.694Z" fill="#013C5E"/>
<path d="M24.175 30.7127L18.0428 36.8294C14.0396 40.8325 7.37336 41.0475 3.15527 36.8294L7.29063 32.694C9.09375 34.4971 12.0546 34.5467 13.9073 32.694L20.0396 26.5774L16.6982 23.3021L24.175 15.8253C25.366 17.0162 26.2097 18.4223 26.7059 19.911L30.4939 20.887L26.7059 26.627C26.2097 28.1158 25.366 29.5217 24.175 30.7127Z" fill="#384949"/>
<path d="M32.4453 34.0211L30.7911 32.3669C30.334 31.9097 30.334 31.1699 30.7911 30.7127C31.2483 30.2556 31.9881 30.2556 32.4453 30.7127L34.0995 32.3669C34.5566 32.8241 34.5566 33.5639 34.0995 34.0211C33.6423 34.4782 32.9025 34.4782 32.4453 34.0211Z" fill="#D2C5C2"/>
<path d="M7.63288 9.20864L5.97861 7.55444C5.52145 7.09729 5.52145 6.35741 5.97861 5.90033C6.43576 5.44326 7.17564 5.44318 7.63272 5.90033L9.28683 7.55444C9.74399 8.0116 9.74399 8.75148 9.28683 9.20856C8.82968 9.66563 8.08995 9.66571 7.63288 9.20864Z" fill="#DFD7D5"/>
<path d="M34.7265 23.8958C34.8936 23.2714 35.535 22.9015 36.1593 23.0687L38.4193 23.6744C39.0437 23.8384 39.4119 24.4829 39.2464 25.1073C39.0792 25.7317 38.4379 26.1016 37.8136 25.9344L35.5536 25.3286C34.9333 25.1626 34.5591 24.5239 34.7265 23.8958Z" fill="#D2C5C2"/>
<path d="M0.831962 14.814C0.999136 14.1896 1.64046 13.8197 2.26479 13.9869L4.52475 14.5927C5.14674 14.7558 5.5182 15.4004 5.35188 16.0256C5.18471 16.65 4.54339 17.0199 3.91906 16.8527L1.6591 16.2468C1.03882 16.0808 0.664555 15.4421 0.831962 14.814Z" fill="#DFD7D5"/>
<path d="M23.7534 38.3407L23.1476 36.0807C22.9804 35.4563 23.3503 34.815 23.9747 34.6479C24.5991 34.4807 25.2396 34.8482 25.4075 35.475L26.0133 37.735C26.1805 38.3594 25.8106 39.0006 25.1862 39.1678C24.5583 39.3351 23.9194 38.9609 23.7534 38.3407Z" fill="#D2C5C2"/>
<path d="M14.6714 4.44648L14.0656 2.18652C13.8984 1.56211 14.2683 0.920865 14.8927 0.753692C15.5171 0.588156 16.1591 0.954004 16.3255 1.58083L16.9314 3.84079C17.0985 4.46519 16.7286 5.10644 16.1042 5.27361C15.4762 5.44079 14.8375 5.0666 14.6714 4.44648Z" fill="#DFD7D5"/>
<path d="M36.9237 3.09199C32.8214 -1.01031 26.155 -1.02692 22.0362 3.09199L15.9039 9.20864C14.713 10.3996 13.8693 11.8056 13.373 13.2944C12.6451 15.478 12.6452 17.8268 13.3731 20.0104C13.8693 21.499 14.713 22.9052 15.9039 24.0962C17.0619 25.2542 18.4514 26.1142 19.9898 26.627L20.0394 26.5774C21.859 24.7578 21.8589 21.7803 20.0394 19.9608C18.2198 18.1412 18.2198 15.1636 20.0394 13.3441L26.1716 7.22743C27.0649 6.33409 28.2228 5.87102 29.4801 5.87102C29.5131 5.83803 29.7942 5.85448 29.8605 5.88755C30.7538 5.88747 31.9281 6.36716 32.7883 7.22743C34.6079 9.047 34.6079 12.0245 32.7883 13.8441L26.7058 19.911C27.4337 22.0946 27.4337 24.4435 26.7058 26.627C28.211 26.1143 29.6337 25.2541 30.7916 24.0961L36.9238 17.9795C41.0261 13.8771 41.026 7.19429 36.9237 3.09199Z" fill="#0086CA"/>
</svg>
