<svg width="40" height="36" viewBox="0 0 40 36" fill="none" xmlns="http://www.w3.org/2000/svg">
<path d="M28.2031 3.51562V5.85938C28.2031 6.51555 27.6876 7.03125 27.0312 7.03125H25.8594V3.51562C25.8594 2.8593 25.3438 2.34375 24.6875 2.34375H15.3125C14.6562 2.34375 14.1406 2.8593 14.1406 3.51562V7.03125H12.9688C12.3124 7.03125 11.7969 6.51555 11.7969 5.85938V3.51562C11.7969 1.57023 13.3671 0 15.3125 0H24.6875C26.6329 0 28.2031 1.57023 28.2031 3.51562Z" fill="#50C4FF"/>
<path d="M24.6875 2.34375H20V0H24.6875C26.6329 0 28.2031 1.57023 28.2031 3.51562V5.85938C28.2031 6.51555 27.6876 7.03125 27.0312 7.03125H25.8594V3.51562C25.8594 2.8593 25.3438 2.34375 24.6875 2.34375Z" fill="#50C4FF"/>
<path d="M40 5.85935V31.6406C40 33.5858 38.4298 35.1562 36.4844 35.1562H3.51562C1.57023 35.1562 0 33.5858 0 31.6406V5.85935C0 5.53122 0.140625 5.24997 0.351641 5.03896L6.32812 18.4922H33.6719L39.6484 5.03888C39.8594 5.24997 40 5.53122 40 5.85935Z" fill="#013C5E"/>
<path d="M40 5.85935V31.6406C40 33.5858 38.4298 35.1562 36.4844 35.1562H20V18.4922H33.6719L39.6484 5.03888C39.8594 5.24997 40 5.53122 40 5.85935Z" fill="#045889"/>
<path d="M39.6483 5.03898L36.0155 18.4922C35.5937 20.039 34.2109 21.0938 32.6171 21.0938H7.38281C5.78891 21.0938 4.40617 20.0391 3.9843 18.4922L0.351562 5.03898C0.562422 4.82813 0.843672 4.6875 1.1718 4.6875H38.828C39.1562 4.6875 39.4374 4.82813 39.6483 5.03898Z" fill="#045889"/>
<path d="M39.6484 5.03898L36.0156 18.4922C35.5938 20.039 34.211 21.0938 32.6172 21.0938H20V4.6875H38.8281C39.1562 4.6875 39.4375 4.82813 39.6484 5.03898Z" fill="#045889"/>
<path d="M24.6875 17.5781H15.3125C14.6562 17.5781 14.1406 18.0937 14.1406 18.75V23.4375C14.1406 24.0937 14.6562 24.6094 15.3125 24.6094H24.6875C25.3438 24.6094 25.8594 24.0937 25.8594 23.4375V18.75C25.8594 18.0937 25.3438 17.5781 24.6875 17.5781Z" fill="#0086CA"/>
<path d="M25.8594 18.75V23.4375C25.8594 24.0937 25.3438 24.6094 24.6875 24.6094H20V17.5781H24.6875C25.3438 17.5781 25.8594 18.0937 25.8594 18.75Z" fill="#50C4FF"/>
</svg>
